<svg id="Layer_1" data-name="Layer 1" xmlns="http://www.w3.org/2000/svg" viewBox="0 0 4700 1000"><defs><style>.cls-1{fill:#1a428a;}</style></defs><path class="cls-1" d="M1441.53,959.44h-66.2L1358.1,997H1333l76.51-164.35L1483.29,997h-25.54ZM1432,937.5l-22.94-52.57-24,52.57Z"/><path class="cls-1" d="M1569.24,934.2V997H1545.9V842.36h26.44q19.42,0,29.35,2.71a39.29,39.29,0,0,1,17.62,10.21q13.32,13,13.32,32.85,0,21.24-14.22,33.65t-38.36,12.42Zm0-21.63H1578q32.15,0,32.15-24.74,0-23.94-33.15-23.94h-7.71Z"/><path class="cls-1" d="M1723.28,934.2V997H1700V842.36h26.44q19.42,0,29.34,2.71a39.32,39.32,0,0,1,17.63,10.21q13.32,13,13.32,32.85,0,21.24-14.22,33.65T1734.1,934.2Zm0-21.63H1732q32.14,0,32.14-24.74,0-23.94-33.15-23.94h-7.71Z"/><path class="cls-1" d="M1933.51,959.44h-66.2L1850.09,997H1825l76.51-164.35L1975.28,997h-25.54ZM1924,937.5l-22.94-52.57-24,52.57Z"/><path class="cls-1" d="M2090.26,931.1l47.87,65.9h-28.54l-44.17-63.3h-4.2V997h-23.34V842.36h27.34q30.66,0,44.27,11.52,15,12.82,15,33.85,0,16.42-9.41,28.24A42,42,0,0,1,2090.26,931.1Zm-29-17.73h7.41q33.15,0,33.15-25.34,0-23.73-32.25-23.74h-8.31Z"/><path class="cls-1" d="M2290,864.29h-62v37.16h60.19v21.93H2228v51.68h62V997h-85.33V842.36H2290Z"/><path class="cls-1" d="M2387.24,842.36v132.7h45.47V997H2363.9V842.36Z"/><path class="cls-1" d="M2665.48,911l27.85,33.66.9-1q4.5-4.9,8.51-9.61t7.71-9.51l15.22,15.62q-2.8,4-7.36,9.31t-10.86,12.22L2736.09,997h-29l-15.43-18.93q-21.23,21.93-44.16,21.93-20.53,0-34.86-13.12a43.11,43.11,0,0,1-14-32.65q0-23.13,22.24-38.46l10.11-6.91a4.25,4.25,0,0,0,.7-.5l1.41-1.1q-15.33-16.32-15.33-32.15,0-15.61,10.22-25.44,10.41-9.81,26.84-9.81,15.92,0,26.34,9.51a31.18,31.18,0,0,1,10.41,24,30.77,30.77,0,0,1-5.71,18.13Q2680.22,899.64,2665.48,911ZM2647,924.08l-1.31.91q-14.31,9.91-19.53,15.92t-5.1,12.72q0,9.61,7.71,17.63,8,7.71,17.63,7.71,13.51,0,31.14-17.73Zm5-29.54,1.91-1.4q4.9-3.71,8.11-6.46a31.11,31.11,0,0,0,4.61-4.66,14,14,0,0,0,3-9.11,12.91,12.91,0,0,0-4.11-9.92c-2.73-2.53-6.41-3.8-11-3.8a15.24,15.24,0,0,0-10.62,3.9,12,12,0,0,0-4.31,9.52q0,6.81,5.41,13.42l5.81,7A11.83,11.83,0,0,0,2652,894.54Z"/><path class="cls-1" d="M2995.31,959.44h-66.2L2911.88,997h-25.14l76.52-164.35L3037.07,997h-25.54Zm-9.52-21.94-22.93-52.57-24,52.57Z"/><path class="cls-1" d="M3206.74,850.67v27.65q-20.23-16.94-41.86-16.93-23.84,0-40.16,17.13t-16.43,41.66q0,24.33,16.43,41.06T3165,978q12.32,0,20.93-4a61,61,0,0,0,10-5.41,119,119,0,0,0,10.87-8.21v28.14a84.24,84.24,0,0,1-42.06,11.32q-33.15,0-56.59-23.14-23.34-23.32-23.33-56.28,0-29.55,19.53-52.68,24-28.34,62.19-28.34Q3187.31,839.36,3206.74,850.67Z"/><path class="cls-1" d="M3393.74,850.67v27.65q-20.23-16.94-41.87-16.93-23.84,0-40.16,17.13t-16.42,41.66q0,24.33,16.42,41.06T3352,978q12.33,0,20.94-4a61,61,0,0,0,10-5.41,119,119,0,0,0,10.87-8.21v28.14a84.27,84.27,0,0,1-42.07,11.32q-33.15,0-56.58-23.14-23.34-23.32-23.34-56.28,0-29.55,19.53-52.68,24-28.34,62.2-28.34Q3374.3,839.36,3393.74,850.67Z"/><path class="cls-1" d="M3551.79,864.29h-62v37.16H3550v21.93h-60.2v51.68h62V997h-85.33V842.36h85.33Z"/><path class="cls-1" d="M3713.15,865.4l-18.93,11.21q-5.31-9.21-10.12-12-5-3.2-12.92-3.2-9.7,0-16.12,5.51a17,17,0,0,0-6.41,13.62q0,11.31,16.82,18.23l15.43,6.31q18.82,7.61,27.54,18.57t8.71,26.89q0,21.35-14.22,35.26t-35.55,14q-20.13,0-33.25-11.92Q3621.2,976,3618,954.33l23.64-5.21q1.61,13.62,5.61,18.83,7.2,10,21,10a24.44,24.44,0,0,0,18.13-7.31q7.2-7.32,7.21-18.53a25.9,25.9,0,0,0-1.26-8.27,21,21,0,0,0-3.9-6.91,31.52,31.52,0,0,0-6.86-5.91,67.21,67.21,0,0,0-10-5.25l-14.92-6.21q-31.76-13.43-31.75-39.26,0-17.43,13.32-29.15t33.15-11.81Q3698.13,839.36,3713.15,865.4Z"/><path class="cls-1" d="M3876,865.4l-18.92,11.21q-5.31-9.21-10.12-12-5-3.2-12.92-3.2-9.72,0-16.12,5.51a17,17,0,0,0-6.41,13.62q0,11.31,16.82,18.23l15.43,6.31q18.82,7.61,27.54,18.57t8.71,26.89q0,21.35-14.22,35.26t-35.55,14q-20.14,0-33.26-11.92-12.92-11.91-16.12-33.55l23.64-5.21q1.59,13.62,5.6,18.83,7.21,10,21,10a24.4,24.4,0,0,0,18.12-7.31q7.22-7.32,7.21-18.53a25.9,25.9,0,0,0-1.25-8.27,21.14,21.14,0,0,0-3.9-6.91,31.52,31.52,0,0,0-6.86-5.91,67.21,67.21,0,0,0-10-5.25l-14.92-6.21q-31.76-13.43-31.75-39.26,0-17.43,13.32-29.15t33.15-11.81Q3861,839.36,3876,865.4Z"/><path class="cls-1" d="M3943.72,919q0-32.65,23.94-56.09t57.28-23.43q33.06,0,56.69,23.63t23.73,56.79q0,33.35-23.83,56.58t-57.79,23.34q-29.94,0-53.78-20.73Q3943.72,956.14,3943.72,919Zm23.53.3q0,25.63,17.23,42.16T4024,978q24.35,0,41.06-16.83,16.72-17,16.73-41.46,0-24.73-16.53-41.46t-40.66-16.83q-24.13,0-40.76,16.83Q3967.26,894.84,3967.25,919.28Z"/><path class="cls-1" d="M4230.37,931.1l47.87,65.9H4249.7l-44.17-63.3h-4.21V997H4178V842.36h27.34q30.65,0,44.27,11.52,15,12.82,15,33.85,0,16.42-9.42,28.24A42,42,0,0,1,4230.37,931.1Zm-29.05-17.73h7.41q33.15,0,33.15-25.34,0-23.73-32.25-23.74h-8.31Z"/><path class="cls-1" d="M4368.09,842.36V997h-23.34V842.36Z"/><path class="cls-1" d="M4533.85,864.29h-62v37.16h60.19v21.93h-60.19v51.68h62V997h-85.33V842.36h85.33Z"/><path class="cls-1" d="M4695.21,865.4l-18.93,11.21q-5.31-9.21-10.12-12-5-3.2-12.92-3.2-9.7,0-16.12,5.51a17.07,17.07,0,0,0-6.41,13.62q0,11.31,16.83,18.23l15.42,6.31q18.82,7.61,27.54,18.57t8.71,26.89q0,21.35-14.22,35.26t-35.55,14q-20.13,0-33.25-11.92-12.91-11.91-16.13-33.55l23.64-5.21q1.61,13.62,5.61,18.83,7.21,10,21,10a24.43,24.43,0,0,0,18.13-7.31q7.2-7.32,7.21-18.53a26.18,26.18,0,0,0-1.25-8.27,21.17,21.17,0,0,0-3.91-6.91,31.52,31.52,0,0,0-6.86-5.91,66.23,66.23,0,0,0-10-5.25l-14.92-6.21Q4607,906.16,4607,880.32q0-17.43,13.32-29.15t33.15-11.81Q4680.19,839.36,4695.21,865.4Z"/><path class="cls-1" d="M1602.6,0c49.92,0,113.83,8,162.76,58.91,37.94,38.94,56.91,96.86,56.91,149.78,0,56.91-20,106.84-52.92,138.79-26,25-60.91,39.94-91.87,45.93L1886.17,666H1671.49L1505.74,410.38V666H1333V0Zm-96.86,298.55h33c26,0,62.91-7,83.88-27,13-13,22-34.95,22-55.91,0-20-8-41.94-23-55.92-16-16-44.93-26-82.88-26h-33Z"/><path class="cls-1" d="M2340.47,554.17H2098.83L2053.9,666H1871.18L2126.79,0h188.72l250.62,666H2381.41Zm-45.93-131.8-74.89-215.68-72.89,215.68Z"/><path class="cls-1" d="M2620,666V0h172.75l318.52,407.39V0H3284V666H3111.29L2792.77,258.61V666Z"/><path class="cls-1" d="M3399.83,666V0h226.66c66.9,0,178.73,9,264.6,91.86C3969,166.75,3984,262.61,3984,334.5c0,87.87-22,165.75-86.88,230.65C3844.17,618.07,3755.3,666,3641.47,666Zm172.74-146.78h34.95c41.94,0,100.85-4,145.78-47.93,22-21,50.92-62.9,50.92-136.79,0-61.91-19-114.83-51.91-145.79-40.95-37.94-94.86-41.93-137.8-41.93h-41.94Z"/><path class="cls-1" d="M4474.34,554.17H4232.7L4187.77,666H4005L4260.66,0h188.71L4700,666H4515.28Zm-45.93-131.8-74.89-215.68-72.89,215.68Z"/><polygon class="cls-1" points="81.17 1000 183.35 1000 82.28 832.1 81.17 832.1 81.17 1000"/><polygon class="cls-1" points="289.93 1000 495.65 1000 464.44 914.45 323.29 914.45 289.93 1000"/><path class="cls-1" d="M167.94,711.06c0-51.4-32.6-61.34-75.72-61.34h-11V775.17h10.5C136.44,775.17,167.94,761.91,167.94,711.06Z"/><polygon class="cls-1" points="598.25 1000 803.97 1000 772.76 914.45 631.6 914.45 598.25 1000"/><polygon class="cls-1" points="390.63 702.18 345.91 849.8 442.36 849.8 391.71 702.18 390.63 702.18"/><path class="cls-1" d="M0,0V583.39H109.91c82.35,0,139.28,36.48,139.28,125.46,0,53.06-29.3,106.11-85.12,115.51l69.6,103.91,131.1-345.16h61.42L547.94,912.6,673.09,583.11h61.42l154,416.89H1000V0Z"/><polygon class="cls-1" points="698.95 702.18 654.23 849.8 750.67 849.8 700.03 702.18 698.95 702.18"/></svg>